<?xml version="1.0" encoding="UTF-8"?>
<svg version="1.1" xmlns="http://www.w3.org/2000/svg" width="50" height="50">
<path d="M0 0 C4.03558263 2.30604722 4.8900156 3.7800312 7 8 C7 10.97 7 13.94 7 17 C-3.89 17.495 -3.89 17.495 -15 18 C-12.81940167 24.84825895 -12.81940167 24.84825895 -9 27 C-4.73639055 27.47373438 -2.77020503 27.59108758 0.6875 24.9375 C1.450625 24.298125 2.21375 23.65875 3 23 C5.3125 23.25 5.3125 23.25 7 24 C2.25 29.875 2.25 29.875 0 31 C-5.11664964 31.50260166 -9.52821374 31.84102072 -14.0625 29.25 C-17.92362613 24.76611159 -18.38940506 20.94983194 -18.4375 15.125 C-18.47037109 14.43019531 -18.50324219 13.73539063 -18.53710938 13.01953125 C-18.57803203 9.06863456 -18.0514864 6.57575733 -15.59765625 3.5546875 C-10.95599137 -1.01019796 -6.27701728 -0.6621709 0 0 Z M-15 9 C-15.33 10.98 -15.66 12.96 -16 15 C-9.07 15 -2.14 15 5 15 C3.75747696 7.51666281 3.75747696 7.51666281 0.875 4.5 C-6.1409448 0.83950706 -10.79986318 2.12704884 -15 9 Z " fill="#FFFFFF" transform="translate(18,10)"/>
<path d="M0 0 C3.2779964 0.31138135 4.68067027 0.67325837 7.01953125 3.06640625 C7.61121094 3.89011719 8.20289063 4.71382812 8.8125 5.5625 C9.41707031 6.38878906 10.02164063 7.21507812 10.64453125 8.06640625 C11.09183594 8.70449219 11.53914063 9.34257812 12 10 C15.26008643 6.83047153 18.22237877 3.60062011 21 0 C22.32 0.33 23.64 0.66 25 1 C24.33871094 1.81984375 23.67742188 2.6396875 22.99609375 3.484375 C22.14256194 4.57239357 21.28973371 5.66096435 20.4375 6.75 C19.99986328 7.28882813 19.56222656 7.82765625 19.11132812 8.3828125 C16.7068298 11.39851706 16.7068298 11.39851706 15.96875 15.0703125 C17.37736971 17.70613878 19.13275531 19.84470204 21.0625 22.125 C25 26.78910369 25 26.78910369 25 29 C21.56140181 28.72087372 20.3071956 28.34760044 17.98046875 25.71484375 C17.38878906 24.79832031 16.79710938 23.88179687 16.1875 22.9375 C15.58292969 22.01839844 14.97835937 21.09929688 14.35546875 20.15234375 C13.90816406 19.44207031 13.46085937 18.73179688 13 18 C9.8870604 20.98103538 7.60724032 23.96943786 5.34375 27.609375 C4.9003125 28.06828125 4.456875 28.5271875 4 29 C2.68 29 1.36 29 0 29 C1.87249539 24.8177768 4.6801953 21.67888967 7.63671875 18.21875 C9.17686446 16.16040585 9.17686446 16.16040585 8.9609375 14.07421875 C7.62766986 11.19631176 5.85033134 8.83932659 3.9375 6.3125 C0 1.08787346 0 1.08787346 0 0 Z " fill="#FFFFFF" transform="translate(25,11)"/>
</svg>
